<?xml version="1.0" encoding="UTF-8"?>
<svg width="512px" height="512px" viewBox="0 0 512 512" version="1.1" xmlns="http://www.w3.org/2000/svg" xmlns:xlink="http://www.w3.org/1999/xlink">
    <title>cancel</title>
    <g id="Page-1" stroke="none" stroke-width="1" fill="none" fill-rule="evenodd">
        <g id="cancel" transform="translate(0.000000, 0.000000)" fill="#FFFFFF" fill-rule="nonzero">
            <path d="M437.126,74.8695 C337.3,-24.9565 174.819,-24.9565 74.993,74.8695 C26.637,123.2445 0,187.5475 0,255.9355 C0,324.3235 26.637,388.6265 74.993,436.9825 C124.916,486.9055 190.488,511.8565 256.059,511.8565 C321.63,511.8565 387.203,486.9055 437.125,436.9825 C536.951,337.1565 536.951,174.7145 437.126,74.8695 Z M409.08,408.9365 C324.705,493.3115 187.413,493.3115 103.038,408.9365 C62.18,368.0785 39.668,313.7325 39.668,255.9355 C39.668,198.1385 62.18,143.7925 103.038,102.9145 C187.413,18.5395 324.705,18.5595 409.08,102.9145 C493.435,187.2895 493.435,324.5815 409.08,408.9365 Z" id="Shape"></path>
            <path d="M341.525,310.7575 L285.374,254.6865 L341.525,198.6155 C349.26,190.8805 349.26,178.3255 341.545,170.5695 C333.79,162.7945 321.235,162.8145 313.48,170.5495 L257.29,226.6605 L201.1,170.5495 C193.345,162.8145 180.79,162.7945 173.035,170.5695 C165.3,178.3245 165.3,190.8795 173.055,198.6155 L229.206,254.6865 L173.055,310.7575 C165.3,318.4925 165.3,331.0475 173.035,338.8035 C176.903,342.6905 182,344.6145 187.078,344.6145 C192.156,344.6145 197.233,342.6705 201.101,338.8225 L257.291,282.7115 L313.481,338.8225 C317.349,342.6905 322.426,344.6145 327.504,344.6145 C332.582,344.6145 337.679,342.6705 341.547,338.8035 C349.28,331.0475 349.28,318.4925 341.525,310.7575 Z" id="Path"></path>
        </g>
    </g>
</svg>